<svg xmlns="http://www.w3.org/2000/svg" version="1.1" xmlns:xlink="http://www.w3.org/1999/xlink" xmlns:svgjs="http://svgjs.dev/svgjs" width="240" height="75" viewBox="0 0 1500 446"><g transform="matrix(1,0,0,1,-0.9089893560083055,0.7427656689469302)"><svg viewBox="0 0 396 118" data-background-color="#ffffff" preserveAspectRatio="xMidYMid meet" height="446" width="1500" xmlns="http://www.w3.org/2000/svg" xmlns:xlink="http://www.w3.org/1999/xlink"><g id="tight-bounds" transform="matrix(1,0,0,1,0.23997318998618766,-0.19651647743438616)"><svg viewBox="0 0 395.52 118.39303295486879" height="118.39303295486879" width="395.52"><g><svg viewBox="0 0 612.1317861626203 183.23255140542528" height="118.39303295486879" width="395.52"><g><rect width="9.617240679571374" height="183.23255140542528" x="159.61327072139105" y="0" fill="#01ff70" opacity="1" stroke-width="0" stroke="transparent" fill-opacity="1" class="rect-qz-0" data-fill-palette-color="primary" rx="1%" id="qz-0" data-palette-color="#01ff70"></rect></g><g><rect width="9.617240679571374" height="183.23255140542528" x="181.81852276165796" y="0" fill="#01ff70" opacity="1" stroke-width="0" stroke="transparent" fill-opacity="1" class="rect-qz-1" data-fill-palette-color="primary" rx="1%" id="qz-1" data-palette-color="#01ff70"></rect></g><g transform="matrix(1,0,0,1,216.61178616262038,0.45580236668014606)"><svg viewBox="0 0 395.52 182.320946672065" height="182.320946672065" width="395.52"><g id="textblocktransform"><svg viewBox="0 0 395.52 182.320946672065" height="182.320946672065" width="395.52" id="textblock"><g><svg viewBox="0 0 395.52 106.64371948605971" height="106.64371948605971" width="395.52"><g transform="matrix(1,0,0,1,0,0)"><svg width="395.52" viewBox="1.35 -36.05 139.82197066335226 37.3" height="106.64371948605971" data-palette-color="#01ff70"><g transform="matrix(1,0,0,1,0,0)"><g><svg width="4.3610379145951566" viewBox="3.16 -36.36 28.68 36.36" height="5.530282135659989" data-palette-color="#01ff70" id="scriptelement" x="133.58714170605467" y="-33.41083106782999"><path d="M10.85 0L3.16 0 3.16-36.36 17.51-36.36Q21.63-36.36 24.55-34.9 27.47-33.43 29-30.76 30.54-28.09 30.54-24.49L30.54-24.49Q30.54-20.86 28.98-18.26 27.41-15.66 24.46-14.28 21.5-12.89 17.31-12.89L17.31-12.89 7.71-12.89 7.71-19.07 16.07-19.07Q18.27-19.07 19.73-19.67 21.18-20.28 21.9-21.48 22.62-22.69 22.62-24.49L22.62-24.49Q22.62-26.3 21.9-27.54 21.18-28.78 19.72-29.43 18.25-30.08 16.03-30.08L16.03-30.08 10.85-30.08 10.85 0ZM14.51-16.55L22.8-16.55 31.84 0 23.35 0 14.51-16.55Z" opacity="1" transform="matrix(1,0,0,1,0,0)" fill="#01ff70" class="undefined-123" data-fill-palette-color="primary" id="yy-123"></path></svg></g></g><path d="M130.363-30.646C130.363-33.63 132.783-36.05 135.768-36.05 138.752-36.05 141.172-33.63 141.172-30.646 141.172-27.661 138.752-25.241 135.768-25.241 132.783-25.241 130.363-27.661 130.363-30.646ZM135.768-25.794C138.447-25.794 140.619-27.966 140.619-30.646 140.619-33.325 138.447-35.497 135.768-35.497 133.088-35.497 130.916-33.325 130.916-30.646 130.916-27.966 133.088-25.794 135.768-25.794Z" fill="#01ff70" id="scriptcircle" data-fill-palette-color="primary"></path><path d="M23.1-11.45L23.1-11.45Q24.05-11.45 24.05-9.05 24.05-6.65 23.15-4.75 22.25-2.85 20.98-1.8 19.7-0.75 18.1-0.1L18.1-0.1Q12.75 2.25 8.1-0.2L8.1-0.2Q5.75-1.45 4.5-3.18 3.25-4.9 2.5-7.3L2.5-7.3Q1.35-10.9 1.35-14.85 1.35-18.8 2.1-22.25 2.85-25.7 4.4-28.83 5.95-31.95 8.8-33.85 11.65-35.75 15.4-35.75L15.4-35.75Q17-35.75 18.73-35.23 20.45-34.7 21.55-33.93 22.65-33.15 23.5-31.55 24.35-29.95 24.35-27.8L24.35-27.8Q24.35-25.5 23.25-23.65L23.25-23.65Q22.75-22.8 21.65-22.13 20.55-21.45 19.05-21.45L19.05-21.45Q16.75-21.45 15.8-23.5L15.8-23.5Q15.4-24.3 15.4-25.25 15.4-26.2 16.05-26.35L16.05-26.35Q16.75-26.55 17.35-27.45 17.95-28.35 17.95-29.55L17.95-29.55Q17.95-30.5 17.45-31.2L17.45-31.2Q16.5-32.45 14.7-32.45 12.9-32.45 11.43-30.8 9.95-29.15 9.2-26.65L9.2-26.65Q7.7-21.65 7.7-17.45L7.7-17.45Q7.7-13.25 8.85-10.7L8.85-10.7Q10.25-7.55 12.4-6.5L12.4-6.5Q13.75-5.85 15.5-5.85L15.5-5.85Q18.45-5.85 20.8-8.5L20.8-8.5Q21.8-9.55 22.45-11L22.45-11Q22.7-11.45 23.1-11.45ZM44.25-9.95L44.15-14.7Q44.15-15.85 42.75-15.95L42.75-15.95 39.2-15.95Q38.8-15.95 38.8-16.2L38.8-16.2Q39.1-17.65 39.85-18.53 40.6-19.4 41.1-19.5L41.1-19.5Q42.5-19.7 45.7-19.7 48.9-19.7 49.7-19.68 50.5-19.65 50.7-19.5L50.7-19.5Q50.9-19.25 50.9-18.93 50.9-18.6 50.72-14.78 50.55-10.95 50.55-7.93 50.55-4.9 50.75-4.13 50.95-3.35 50.95-3.15L50.95-3.15Q50.95-2.35 49.55-1.43 48.15-0.5 45.32 0.2 42.5 0.9 39.1 0.9L39.1 0.9Q34.55 0.9 31.2-2.25L31.2-2.25Q28.6-4.75 27.62-7.7 26.65-10.65 26.65-16L26.65-16Q26.65-35.85 41.2-35.85L41.2-35.85Q43.65-35.85 45.6-35.33 47.55-34.8 49.02-33.27 50.5-31.75 50.5-29.35L50.5-29.35Q50.5-28.1 50-26.8L50-26.8Q49.1-24.15 46-24.15L46-24.15Q44.3-24.15 43.42-25.03 42.55-25.9 42.55-27.45L42.55-27.45Q42.55-28.05 43.2-28.2L43.2-28.2Q44.15-28.75 44.15-30.08 44.15-31.4 43.15-32.13 42.15-32.85 41.05-32.85L41.05-32.85Q38.65-32.85 37-31.13 35.35-29.4 34.6-26.6L34.6-26.6Q33.35-21.6 33.35-16.4L33.35-16.4Q33.35-7.9 37.5-5.1L37.5-5.1Q39.05-4 40.75-4L40.75-4Q43.9-4 44.1-5.15L44.1-5.15Q44.25-6.7 44.25-9.95L44.25-9.95ZM71.65-32.5L71.65-32.5 71.45-34.35Q71.45-35.25 73.75-35.63 76.05-36 78.25-36 80.45-36 80.45-35.25L80.45-35.25Q80.45-34.9 79.95-34.4L79.95-34.4Q78-32.35 75.22-27.7 72.45-23.05 70.65-19.4L70.65-19.4 68.84-15.8Q67.95-13.9 67.95-11.63 67.95-9.35 68.09-7.13 68.25-4.9 68.4-3.35 68.55-1.8 68.55-1.55L68.55-1.55Q68.55-0.3 66.25 0.48 63.95 1.25 62.47 1.25 61 1.25 61 0.7L61 0.7 61.15 0.05Q62-4.5 62-10.75L62-10.75Q62-12.3 61.5-14.6L61.5-14.6 61.35-15.25Q58.15-23.9 55.35-28L55.35-28Q52.95-31.65 51.85-32.3L51.85-32.3 51.4-32.6Q50.9-32.9 50.9-33.3L50.9-33.3Q50.9-34.15 53.5-35.05 56.1-35.95 57.42-35.95 58.75-35.95 59.2-35.15L59.2-35.15Q63.7-25.75 66.2-19.95L66.2-19.95Q66.34-19.65 66.62-19.65 66.9-19.65 67.27-20.25 67.65-20.85 68.4-22.15 69.15-23.45 70.4-26.78 71.65-30.1 71.65-32.5ZM95.99-27.7L95.99-27.7 96.19-29.25Q96.19-31.55 94.39-32.2L94.39-32.2Q92.99-32.65 92.24-32.65L92.24-32.65 92.19-32.65Q90.69-32.65 89.59-32.18 88.49-31.7 87.99-31L87.99-31Q86.94-29.55 86.79-27.95L86.79-27.95Q86.79-26.05 88.49-24.68 90.19-23.3 92.62-22.28 95.04-21.25 97.47-20.05 99.89-18.85 101.59-16.6 103.29-14.35 103.29-11.2L103.29-11.2Q103.29-5.05 99.42-2 95.54 1.05 90.62 1.05 85.69 1.05 82.47-1.18 79.24-3.4 79.24-7.15L79.24-7.15 79.24-7.2Q79.24-9.05 79.82-10.43 80.39-11.8 81.19-12.45L81.19-12.45Q82.84-13.8 84.19-13.9L84.19-13.9 84.79-13.95Q86.19-13.95 87.34-13.28 88.49-12.6 88.49-11.4L88.49-11.4Q88.49-10.8 87.84-10.4 87.19-10 86.72-9.2 86.24-8.4 86.19-7.85L86.19-7.85 86.09-7.3Q86.09-4.25 88.89-3.25L88.89-3.25Q89.89-2.9 90.49-2.9L90.49-2.9Q93.24-2.9 94.92-4.55 96.59-6.2 96.59-8.75L96.59-8.75Q96.59-11.8 93.99-13.7L93.99-13.7Q92.04-15.1 89.77-16.05 87.49-17 86.69-17.4 85.89-17.8 84.99-18.35 84.09-18.9 82.99-19.9L82.99-19.9Q80.59-22 80.59-25.58 80.59-29.15 82.54-31.6L82.54-31.6Q86.04-36.05 93.04-36.05L93.04-36.05Q96.74-36.05 99.29-34.63 101.84-33.2 101.84-30.7L101.84-30.7Q101.84-28.9 100.82-27.7 99.79-26.5 98.19-26.5L98.19-26.5Q97.44-26.5 96.72-26.8 95.99-27.1 95.99-27.7ZM121.49-27.7L121.49-27.7 121.69-29.25Q121.69-31.55 119.89-32.2L119.89-32.2Q118.49-32.65 117.74-32.65L117.74-32.65 117.69-32.65Q116.19-32.65 115.09-32.18 113.99-31.7 113.49-31L113.49-31Q112.44-29.55 112.29-27.95L112.29-27.95Q112.29-26.05 113.99-24.68 115.69-23.3 118.12-22.28 120.54-21.25 122.97-20.05 125.39-18.85 127.09-16.6 128.79-14.35 128.79-11.2L128.79-11.2Q128.79-5.05 124.92-2 121.04 1.05 116.12 1.05 111.19 1.05 107.97-1.18 104.74-3.4 104.74-7.15L104.74-7.15 104.74-7.2Q104.74-9.05 105.31-10.43 105.89-11.8 106.69-12.45L106.69-12.45Q108.34-13.8 109.69-13.9L109.69-13.9 110.29-13.95Q111.69-13.95 112.84-13.28 113.99-12.6 113.99-11.4L113.99-11.4Q113.99-10.8 113.34-10.4 112.69-10 112.22-9.2 111.74-8.4 111.69-7.85L111.69-7.85 111.59-7.3Q111.59-4.25 114.39-3.25L114.39-3.25Q115.39-2.9 115.99-2.9L115.99-2.9Q118.74-2.9 120.42-4.55 122.09-6.2 122.09-8.75L122.09-8.75Q122.09-11.8 119.49-13.7L119.49-13.7Q117.54-15.1 115.27-16.05 112.99-17 112.19-17.4 111.39-17.8 110.49-18.35 109.59-18.9 108.49-19.9L108.49-19.9Q106.09-22 106.09-25.58 106.09-29.15 108.04-31.6L108.04-31.6Q111.54-36.05 118.54-36.05L118.54-36.05Q122.24-36.05 124.79-34.63 127.34-33.2 127.34-30.7L127.34-30.7Q127.34-28.9 126.31-27.7 125.29-26.5 123.69-26.5L123.69-26.5Q122.94-26.5 122.22-26.8 121.49-27.1 121.49-27.7Z" opacity="1" transform="matrix(1,0,0,1,0,0)" fill="#01ff70" class="wordmark-text-0" data-fill-palette-color="primary" id="text-0"></path></svg></g></svg></g><g transform="matrix(1,0,0,1,0,131.81974220745073)"><svg viewBox="0 0 395.52 50.501204464614254" height="50.501204464614254" width="395.52"><g transform="matrix(1,0,0,1,0,0)"><svg width="395.52" viewBox="1.35 -36.05 407.59999999999997 52.05" height="50.501204464614254" data-palette-color="url(#049b1c67-18a6-41a0-b509-23631bf206de)"></svg></g></svg></g></svg></g></svg></g><g transform="matrix(1,0,0,1,0,23.451709620919075)"><svg viewBox="0 0 134.437248 136.32913216358713" height="136.32913216358713" width="134.437248"><g><svg xmlns="http://www.w3.org/2000/svg" xmlns:xlink="http://www.w3.org/1999/xlink" version="1.1" x="0" y="0" viewBox="5.611392405413278 5.03 88.77569349357734 90.02500000000003" enable-background="new 0 0 100 100" xml:space="preserve" height="136.32913216358713" width="134.437248" class="icon-icon-0" data-fill-palette-color="accent" id="icon-0"><g fill="#f83505" data-fill-palette-color="accent"><path d="M50.489 5.03c-5.545 0-10.058 4.511-10.058 10.057s4.512 10.059 10.058 10.059c5.547 0 10.058-4.513 10.058-10.059S56.036 5.03 50.489 5.03z" fill="#f83505" data-fill-palette-color="accent"></path><path d="M65.216 59.285c0.839 3.503 9.153 5.193 16.49 6.686 2.944 0.6 5.488 1.117 7.024 1.665 0.615 0.22 1.217 0.331 1.793 0.331 2.335 0 3.73-1.803 3.855-3.499 0.104-1.421-0.668-3.213-3.186-3.587-4.896-0.725-12.808-3.803-16.849-6.111-3.688-2.109-4.627-11.376-4.827-14.167-0.033-0.471-0.035-0.954-0.037-1.463-0.011-2.25-0.024-4.801-2.894-7.191-1.487-1.24-3.103-1.679-4.665-2.103-2.076-0.565-4.223-1.147-6.295-3.634-0.097-0.117-0.257-0.163-0.399-0.117-1.506 0.483-3.062 0.729-4.628 0.729-2.354 0-4.023-0.562-4.376-0.692-0.022-0.014-0.044-0.026-0.068-0.038-0.151-0.062-0.325-0.019-0.428 0.107-2.072 2.486-4.219 3.069-6.295 3.633-1.562 0.424-3.177 0.864-4.665 2.103-2.87 2.39-2.883 4.941-2.894 7.192-0.002 0.51-0.004 0.992-0.039 1.463-0.175 2.439-2.068 12.23-5.808 14.367-4.041 2.308-11.953 5.386-16.848 6.111-2.627 0.389-3.685 2.447-3.555 4.195 0.112 1.536 1.206 3.188 3.337 3.188 0.536 0 1.11-0.107 1.705-0.32 1.519-0.542 4.125-1.085 7.143-1.712 7.353-1.529 16.503-3.433 17.347-6.948 0.896-3.727 3.281-9.283 4.155-11.256 0.87 1.929 2.955 7.515 0.76 12.781l-0.46 1.11c-1.72 4.155-2.133 5.034-3.539 5.034-0.596 0-1.37-0.156-2.48-0.396-1.437-0.311-4.317-0.51-7.341-0.51-4.071 0-13.897 0.375-17.204 3.861-0.78 0.823-1.149 1.77-1.093 2.815 0.407 7.73 6.43 9.31 8.022 9.31 0.725 0 2.091 0.944 3.411 1.856 1.593 1.103 3.098 2.143 4.194 2.143 0.209 0 0.4-0.038 0.569-0.113 0.226-0.101 0.49-0.175 0.789-0.221-1.099 0.328-2.168 0.904-2.774 1.909-0.81 1.344-0.618 3.168 0.57 5.421 0.639 1.213 1.602 1.827 2.861 1.827 1.671 0 3.526-1.062 5.164-1.999 1.039-0.594 2.021-1.155 2.524-1.155 0.044 0 0.081 0.006 0.111 0.015 0.889 0.296 4.378 0.4 7.096 0.4 3.865 0 8.759-0.197 10.077-0.754l0.621 0.008c1.67 0.72 8.473 0.757 9.842 0.757 2.641 0 6.04-0.105 6.928-0.401 0.03-0.009 0.068-0.015 0.112-0.015 0.503 0 1.484 0.562 2.524 1.157 1.637 0.936 3.491 1.998 5.163 1.998l0 0c1.259 0 2.222-0.615 2.86-1.828 1.189-2.253 1.38-4.077 0.569-5.421-0.604-1.004-1.674-1.58-2.772-1.909 0.299 0.047 0.562 0.121 0.789 0.221 0.169 0.076 0.36 0.113 0.568 0.113 1.097 0 2.602-1.04 4.192-2.141 1.323-0.914 2.688-1.858 3.412-1.858 1.593 0 7.616-1.579 8.024-9.308 0.055-1.048-0.314-1.994-1.094-2.817C89 66.626 79.175 66.249 75.104 66.249c-3.023 0-5.904 0.2-7.341 0.51-1.112 0.239-1.886 0.396-2.481 0.396-1.406 0-1.819-0.88-3.539-5.037l-0.46-1.108c-2.152-5.166-0.188-10.638 0.71-12.666C62.665 50.404 64.341 55.646 65.216 59.285z" fill="#f83505" data-fill-palette-color="accent"></path></g></svg></g></svg></g></svg></g><defs></defs><mask id="62bb5c27-3293-48ea-a929-0b935d1808c7"><g id="SvgjsG1858"><svg viewBox="0 0 395.52 118.39303295486879" height="118.39303295486879" width="395.52"><g><svg viewBox="0 0 612.1317861626203 183.23255140542528" height="118.39303295486879" width="395.52"><g><rect width="9.617240679571374" height="183.23255140542528" x="159.61327072139105" y="0" fill="black" opacity="1" stroke-width="0" stroke="transparent" fill-opacity="1" class="rect-qz-0" rx="1%" id="SvgjsRect1857" data-palette-color="#01ff70"></rect></g><g><rect width="9.617240679571374" height="183.23255140542528" x="181.81852276165796" y="0" fill="black" opacity="1" stroke-width="0" stroke="transparent" fill-opacity="1" class="rect-qz-1" rx="1%" id="SvgjsRect1856" data-palette-color="#01ff70"></rect></g><g transform="matrix(1,0,0,1,216.61178616262038,0.45580236668014606)"><svg viewBox="0 0 395.52 182.320946672065" height="182.320946672065" width="395.52"><g id="SvgjsG1855"><svg viewBox="0 0 395.52 182.320946672065" height="182.320946672065" width="395.52" id="SvgjsSvg1854"><g><svg viewBox="0 0 395.52 106.64371948605971" height="106.64371948605971" width="395.52"><g transform="matrix(1,0,0,1,0,0)"><svg width="395.52" viewBox="1.35 -36.05 139.82197066335226 37.3" height="106.64371948605971" data-palette-color="#01ff70"><g transform="matrix(1,0,0,1,0,0)"><g><svg width="4.3610379145951566" viewBox="3.16 -36.36 28.68 36.36" height="5.530282135659989" data-palette-color="#01ff70" id="SvgjsSvg1853" x="133.58714170605467" y="-33.41083106782999"><path d="M10.85 0L3.16 0 3.16-36.36 17.51-36.36Q21.63-36.36 24.55-34.9 27.47-33.43 29-30.76 30.54-28.09 30.54-24.49L30.54-24.49Q30.54-20.86 28.98-18.26 27.41-15.66 24.46-14.28 21.5-12.89 17.31-12.89L17.31-12.89 7.71-12.89 7.71-19.07 16.07-19.07Q18.27-19.07 19.73-19.67 21.18-20.28 21.9-21.48 22.62-22.69 22.62-24.49L22.62-24.49Q22.62-26.3 21.9-27.54 21.18-28.78 19.72-29.43 18.25-30.08 16.03-30.08L16.03-30.08 10.85-30.08 10.85 0ZM14.51-16.55L22.8-16.55 31.84 0 23.35 0 14.51-16.55Z" opacity="1" transform="matrix(1,0,0,1,0,0)" fill="black" class="undefined-123" id="SvgjsPath1852"></path></svg></g></g><path d="M130.363-30.646C130.363-33.63 132.783-36.05 135.768-36.05 138.752-36.05 141.172-33.63 141.172-30.646 141.172-27.661 138.752-25.241 135.768-25.241 132.783-25.241 130.363-27.661 130.363-30.646ZM135.768-25.794C138.447-25.794 140.619-27.966 140.619-30.646 140.619-33.325 138.447-35.497 135.768-35.497 133.088-35.497 130.916-33.325 130.916-30.646 130.916-27.966 133.088-25.794 135.768-25.794Z" fill="black" id="SvgjsPath1851"></path><path d="M23.1-11.45L23.1-11.45Q24.05-11.45 24.05-9.05 24.05-6.65 23.15-4.75 22.25-2.85 20.98-1.8 19.7-0.75 18.1-0.1L18.1-0.1Q12.75 2.25 8.1-0.2L8.1-0.2Q5.75-1.45 4.5-3.18 3.25-4.9 2.5-7.3L2.5-7.3Q1.35-10.9 1.35-14.85 1.35-18.8 2.1-22.25 2.85-25.7 4.4-28.83 5.95-31.95 8.8-33.85 11.65-35.75 15.4-35.75L15.4-35.75Q17-35.75 18.73-35.23 20.45-34.7 21.55-33.93 22.65-33.15 23.5-31.55 24.35-29.95 24.35-27.8L24.35-27.8Q24.35-25.5 23.25-23.65L23.25-23.65Q22.75-22.8 21.65-22.13 20.55-21.45 19.05-21.45L19.05-21.45Q16.75-21.45 15.8-23.5L15.8-23.5Q15.4-24.3 15.4-25.25 15.4-26.2 16.05-26.35L16.05-26.35Q16.75-26.55 17.35-27.45 17.95-28.35 17.95-29.55L17.95-29.55Q17.95-30.5 17.45-31.2L17.45-31.2Q16.5-32.45 14.7-32.45 12.9-32.45 11.43-30.8 9.95-29.15 9.2-26.65L9.2-26.65Q7.7-21.65 7.7-17.45L7.7-17.45Q7.7-13.25 8.85-10.7L8.85-10.7Q10.25-7.55 12.4-6.5L12.4-6.5Q13.75-5.85 15.5-5.85L15.5-5.85Q18.45-5.85 20.8-8.5L20.8-8.5Q21.8-9.55 22.45-11L22.45-11Q22.7-11.45 23.1-11.45ZM44.25-9.95L44.15-14.7Q44.15-15.85 42.75-15.95L42.75-15.95 39.2-15.95Q38.8-15.95 38.8-16.2L38.8-16.2Q39.1-17.65 39.85-18.53 40.6-19.4 41.1-19.5L41.1-19.5Q42.5-19.7 45.7-19.7 48.9-19.7 49.7-19.68 50.5-19.65 50.7-19.5L50.7-19.5Q50.9-19.25 50.9-18.93 50.9-18.6 50.72-14.78 50.55-10.95 50.55-7.93 50.55-4.9 50.75-4.13 50.95-3.35 50.95-3.15L50.95-3.15Q50.95-2.35 49.55-1.43 48.15-0.5 45.32 0.2 42.5 0.9 39.1 0.9L39.1 0.9Q34.55 0.9 31.2-2.25L31.2-2.25Q28.6-4.75 27.62-7.7 26.65-10.65 26.65-16L26.65-16Q26.65-35.85 41.2-35.85L41.2-35.85Q43.65-35.85 45.6-35.33 47.55-34.8 49.02-33.27 50.5-31.75 50.5-29.35L50.5-29.35Q50.5-28.1 50-26.8L50-26.8Q49.1-24.15 46-24.15L46-24.15Q44.3-24.15 43.42-25.03 42.55-25.9 42.55-27.45L42.55-27.45Q42.55-28.05 43.2-28.2L43.2-28.2Q44.15-28.75 44.15-30.08 44.15-31.4 43.15-32.13 42.15-32.85 41.05-32.85L41.05-32.85Q38.65-32.85 37-31.13 35.35-29.4 34.6-26.6L34.6-26.6Q33.35-21.6 33.35-16.4L33.35-16.4Q33.35-7.9 37.5-5.1L37.5-5.1Q39.05-4 40.75-4L40.75-4Q43.9-4 44.1-5.15L44.1-5.15Q44.25-6.7 44.25-9.95L44.25-9.95ZM71.65-32.5L71.65-32.5 71.45-34.35Q71.45-35.25 73.75-35.63 76.05-36 78.25-36 80.45-36 80.45-35.25L80.45-35.25Q80.45-34.9 79.95-34.4L79.95-34.4Q78-32.35 75.22-27.7 72.45-23.05 70.65-19.4L70.65-19.4 68.84-15.8Q67.95-13.9 67.95-11.63 67.95-9.35 68.09-7.13 68.25-4.9 68.4-3.35 68.55-1.8 68.55-1.55L68.55-1.55Q68.55-0.3 66.25 0.48 63.95 1.25 62.47 1.25 61 1.25 61 0.7L61 0.7 61.15 0.05Q62-4.5 62-10.75L62-10.75Q62-12.3 61.5-14.6L61.5-14.6 61.35-15.25Q58.15-23.9 55.35-28L55.35-28Q52.95-31.65 51.85-32.3L51.85-32.3 51.4-32.6Q50.9-32.9 50.9-33.3L50.9-33.3Q50.9-34.15 53.5-35.05 56.1-35.95 57.42-35.95 58.75-35.95 59.2-35.15L59.2-35.15Q63.7-25.75 66.2-19.95L66.2-19.95Q66.34-19.65 66.62-19.65 66.9-19.65 67.27-20.25 67.65-20.85 68.4-22.15 69.15-23.45 70.4-26.78 71.65-30.1 71.65-32.5ZM95.99-27.7L95.99-27.7 96.19-29.25Q96.19-31.55 94.39-32.2L94.39-32.2Q92.99-32.65 92.24-32.65L92.24-32.65 92.19-32.65Q90.69-32.65 89.59-32.18 88.49-31.7 87.99-31L87.99-31Q86.94-29.55 86.79-27.95L86.79-27.95Q86.79-26.05 88.49-24.68 90.19-23.3 92.62-22.28 95.04-21.25 97.47-20.05 99.89-18.85 101.59-16.6 103.29-14.35 103.29-11.2L103.29-11.2Q103.29-5.05 99.42-2 95.54 1.05 90.62 1.05 85.69 1.05 82.47-1.18 79.24-3.4 79.24-7.15L79.24-7.15 79.24-7.2Q79.24-9.05 79.82-10.43 80.39-11.8 81.19-12.45L81.19-12.45Q82.84-13.8 84.19-13.9L84.19-13.9 84.79-13.95Q86.19-13.95 87.34-13.28 88.49-12.6 88.49-11.4L88.49-11.4Q88.49-10.8 87.84-10.4 87.19-10 86.72-9.2 86.24-8.4 86.19-7.85L86.19-7.85 86.09-7.3Q86.09-4.25 88.89-3.25L88.89-3.25Q89.89-2.9 90.49-2.9L90.49-2.9Q93.24-2.9 94.92-4.55 96.59-6.2 96.59-8.75L96.59-8.75Q96.59-11.8 93.99-13.7L93.99-13.7Q92.04-15.1 89.77-16.05 87.49-17 86.69-17.4 85.89-17.8 84.99-18.35 84.09-18.9 82.99-19.9L82.99-19.9Q80.59-22 80.59-25.58 80.59-29.15 82.54-31.6L82.54-31.6Q86.04-36.05 93.04-36.05L93.04-36.05Q96.74-36.05 99.29-34.63 101.84-33.2 101.84-30.7L101.84-30.7Q101.84-28.9 100.82-27.7 99.79-26.5 98.19-26.5L98.19-26.5Q97.44-26.5 96.72-26.8 95.99-27.1 95.99-27.7ZM121.49-27.7L121.49-27.7 121.69-29.25Q121.69-31.55 119.89-32.2L119.89-32.2Q118.49-32.65 117.74-32.65L117.74-32.65 117.69-32.65Q116.19-32.65 115.09-32.18 113.99-31.7 113.49-31L113.49-31Q112.44-29.55 112.29-27.95L112.29-27.95Q112.29-26.05 113.99-24.68 115.69-23.3 118.12-22.28 120.54-21.25 122.97-20.05 125.39-18.85 127.09-16.6 128.79-14.35 128.79-11.2L128.79-11.2Q128.79-5.05 124.92-2 121.04 1.05 116.12 1.05 111.19 1.05 107.97-1.18 104.74-3.4 104.74-7.15L104.74-7.15 104.74-7.2Q104.74-9.05 105.31-10.43 105.89-11.8 106.69-12.45L106.69-12.45Q108.34-13.8 109.69-13.9L109.69-13.9 110.29-13.95Q111.69-13.95 112.84-13.28 113.99-12.6 113.99-11.4L113.99-11.4Q113.99-10.8 113.34-10.4 112.69-10 112.22-9.2 111.74-8.4 111.69-7.85L111.69-7.85 111.59-7.3Q111.59-4.25 114.39-3.25L114.39-3.25Q115.39-2.9 115.99-2.9L115.99-2.9Q118.74-2.9 120.42-4.55 122.09-6.2 122.09-8.75L122.09-8.75Q122.09-11.8 119.49-13.7L119.49-13.7Q117.54-15.1 115.27-16.05 112.99-17 112.19-17.4 111.39-17.8 110.49-18.35 109.59-18.9 108.49-19.9L108.49-19.9Q106.09-22 106.09-25.58 106.09-29.15 108.04-31.6L108.04-31.6Q111.54-36.05 118.54-36.05L118.54-36.05Q122.24-36.05 124.79-34.63 127.34-33.2 127.34-30.7L127.34-30.7Q127.34-28.9 126.31-27.7 125.29-26.5 123.69-26.5L123.69-26.5Q122.94-26.5 122.22-26.8 121.49-27.1 121.49-27.7Z" opacity="1" transform="matrix(1,0,0,1,0,0)" fill="black" class="wordmark-text-0" id="SvgjsPath1850"></path></svg></g></svg></g><g transform="matrix(1,0,0,1,0,131.81974220745073)"><svg viewBox="0 0 395.52 50.501204464614254" height="50.501204464614254" width="395.52"><g transform="matrix(1,0,0,1,0,0)"><svg width="395.52" viewBox="1.35 -36.05 407.59999999999997 52.05" height="50.501204464614254" data-palette-color="url(#049b1c67-18a6-41a0-b509-23631bf206de)"><path d="M23.1-11.45L23.1-11.45Q24.05-11.45 24.05-9.05 24.05-6.65 23.15-4.75 22.25-2.85 20.98-1.8 19.7-0.75 18.1-0.1L18.1-0.1Q12.75 2.25 8.1-0.2L8.1-0.2Q5.75-1.45 4.5-3.18 3.25-4.9 2.5-7.3L2.5-7.3Q1.35-10.9 1.35-14.85 1.35-18.8 2.1-22.25 2.85-25.7 4.4-28.83 5.95-31.95 8.8-33.85 11.65-35.75 15.4-35.75L15.4-35.75Q17-35.75 18.73-35.23 20.45-34.7 21.55-33.93 22.65-33.15 23.5-31.55 24.35-29.95 24.35-27.8L24.35-27.8Q24.35-25.5 23.25-23.65L23.25-23.65Q22.75-22.8 21.65-22.13 20.55-21.45 19.05-21.45L19.05-21.45Q16.75-21.45 15.8-23.5L15.8-23.5Q15.4-24.3 15.4-25.25 15.4-26.2 16.05-26.35L16.05-26.35Q16.75-26.55 17.35-27.45 17.95-28.35 17.95-29.55L17.95-29.55Q17.95-30.5 17.45-31.2L17.45-31.2Q16.5-32.45 14.7-32.45 12.9-32.45 11.43-30.8 9.95-29.15 9.2-26.65L9.2-26.65Q7.7-21.65 7.7-17.45L7.7-17.45Q7.7-13.25 8.85-10.7L8.85-10.7Q10.25-7.55 12.4-6.5L12.4-6.5Q13.75-5.85 15.5-5.85L15.5-5.85Q18.45-5.85 20.8-8.5L20.8-8.5Q21.8-9.55 22.45-11L22.45-11Q22.7-11.45 23.1-11.45ZM30.1-20.18Q31.2-21.3 33-22.08 34.8-22.85 36.45-22.85 38.1-22.85 39.8-22.1L39.8-22.1Q40-22.1 40.1-22.2L40.1-22.2Q41.4-23.5 43.9-23.5L43.9-23.5Q44.5-23.5 44.5-22.95L44.5-22.95Q44.5-22.9 44.4-22.5 44.3-22.1 44.15-21.33 44-20.55 43.9-19.45L43.9-19.45Q43.55-16.6 43.52-13.15 43.5-9.7 43.5-6.25L43.5-6.25 43.65 4.25Q43.65 9.3 41.05 12.65L41.05 12.65Q40 14 37.87 15 35.75 16 32.9 16L32.9 16Q32.25 15.6 32.25 15.2 32.25 14.8 32.8 14.55L32.8 14.55Q35.95 13.1 37.3 7.68 38.65 2.25 38.65-8.8L38.65-8.8 38.55-15.8 38.4-19.2Q38.4-19.65 37-19.85L37-19.85Q35.2-19.85 33.97-18.68 32.75-17.5 32.3-15.6L32.3-15.6Q31.5-12.55 31.5-10.33 31.5-8.1 32.22-6.4 32.95-4.7 34.75-4.7L34.75-4.7Q35.25-4.7 35.67-4.9 36.1-5.1 36.25-5.1L36.25-5.1Q36.75-5.1 36.75-4.1 36.75-3.1 36.6-2.48 36.45-1.85 36-1.1L36-1.1Q35 0.55 32.1 0.55L32.1 0.55Q29.2 0.55 27.95-1.55L27.95-1.55Q26.65-3.7 26.45-5.4L26.45-5.4Q26.15-7.95 26.15-8.75 26.15-9.55 26.17-10.03 26.2-10.5 26.42-11.93 26.65-13.35 27.02-14.63 27.4-15.9 28.2-17.48 29-19.05 30.1-20.18ZM73.74-32.5L73.74-32.5 73.54-34.35Q73.54-35.25 75.84-35.63 78.14-36 80.34-36 82.54-36 82.54-35.25L82.54-35.25Q82.54-34.9 82.04-34.4L82.04-34.4Q80.09-32.35 77.32-27.7 74.54-23.05 72.74-19.4L72.74-19.4 70.94-15.8Q70.04-13.9 70.04-11.63 70.04-9.35 70.19-7.13 70.34-4.9 70.49-3.35 70.64-1.8 70.64-1.55L70.64-1.55Q70.64-0.3 68.34 0.48 66.04 1.25 64.57 1.25 63.09 1.25 63.09 0.7L63.09 0.7 63.24 0.05Q64.09-4.5 64.09-10.75L64.09-10.75Q64.09-12.3 63.59-14.6L63.59-14.6 63.44-15.25Q60.24-23.9 57.44-28L57.44-28Q55.04-31.65 53.94-32.3L53.94-32.3 53.49-32.6Q52.99-32.9 52.99-33.3L52.99-33.3Q52.99-34.15 55.59-35.05 58.19-35.95 59.52-35.95 60.84-35.95 61.29-35.15L61.29-35.15Q65.79-25.75 68.29-19.95L68.29-19.95Q68.44-19.65 68.72-19.65 68.99-19.65 69.37-20.25 69.74-20.85 70.49-22.15 71.24-23.45 72.49-26.78 73.74-30.1 73.74-32.5ZM82.09-18.85L82.09-18.85Q80.79-18.8 80.22-18.78 79.64-18.75 79.64-19.05 79.64-19.35 79.94-19.65L79.94-19.65Q83.14-22.6 90.74-22.6L90.74-22.6Q93.34-22.6 94.84-22.15L94.84-22.15 95.34-22Q95.94-21.75 95.94-21.45L95.94-21.45Q95.94-21.2 95.59-21.05L95.59-21.05Q94.24-20.65 92.99-19.78 91.74-18.9 91.74-18.55L91.74-18.55 92.04-18.2Q93.64-17.3 94.52-15.35 95.39-13.4 95.49-11.9L95.49-11.9 95.59-10.35Q95.59-5.4 92.84-2.2 90.09 1 85.34 1L85.34 1Q82.94 1 81.19 0.15 79.44-0.7 78.62-1.78 77.79-2.85 77.29-4.2L77.29-4.2Q76.69-6.05 76.69-8.03 76.69-10 77.37-12 78.04-14 78.92-14.95 79.79-15.9 80.89-16.5L80.89-16.5Q82.29-17.25 83.14-17.25 83.99-17.25 83.99-16.9L83.99-16.9 83.69-16.4Q82.59-15.1 82.12-13 81.64-10.9 81.64-9.28 81.64-7.65 82.04-6.05 82.44-4.45 82.94-3.68 83.44-2.9 84.09-2.5L84.09-2.5Q85.04-1.9 86.09-1.9 87.14-1.9 88.14-2.73 89.14-3.55 89.59-4.9L89.59-4.9Q90.49-7.4 90.49-10.05L90.49-10.05Q90.49-14.25 88.37-16.55 86.24-18.85 82.09-18.85ZM101.49-20.18Q102.59-21.3 104.39-22.08 106.19-22.85 107.84-22.85 109.49-22.85 111.19-22.1L111.19-22.1Q111.39-22.1 111.49-22.2L111.49-22.2Q112.79-23.5 115.29-23.5L115.29-23.5Q115.89-23.5 115.89-22.95L115.89-22.95Q115.89-22.9 115.79-22.5 115.69-22.1 115.54-21.33 115.39-20.55 115.29-19.45L115.29-19.45Q114.94-16.6 114.91-13.15 114.89-9.7 114.89-6.25L114.89-6.25 115.04 4.25Q115.04 9.3 112.44 12.65L112.44 12.65Q111.39 14 109.26 15 107.14 16 104.29 16L104.29 16Q103.64 15.6 103.64 15.2 103.64 14.8 104.19 14.55L104.19 14.55Q107.34 13.1 108.69 7.68 110.04 2.25 110.04-8.8L110.04-8.8 109.94-15.8 109.79-19.2Q109.79-19.65 108.39-19.85L108.39-19.85Q106.59-19.85 105.36-18.68 104.14-17.5 103.69-15.6L103.69-15.6Q102.89-12.55 102.89-10.33 102.89-8.1 103.61-6.4 104.34-4.7 106.14-4.7L106.14-4.7Q106.64-4.7 107.06-4.9 107.49-5.1 107.64-5.1L107.64-5.1Q108.14-5.1 108.14-4.1 108.14-3.1 107.99-2.48 107.84-1.85 107.39-1.1L107.39-1.1Q106.39 0.55 103.49 0.55L103.49 0.55Q100.59 0.55 99.34-1.55L99.34-1.55Q98.04-3.7 97.84-5.4L97.84-5.4Q97.54-7.95 97.54-8.75 97.54-9.55 97.56-10.03 97.59-10.5 97.81-11.93 98.04-13.35 98.41-14.63 98.79-15.9 99.59-17.48 100.39-19.05 101.49-20.18ZM134.84-15L134.84-15 134.74-8.6Q134.74-1.95 136.19-0.6L136.19-0.6Q136.39-0.4 136.39-0.15L136.39-0.15Q136.39 0.6 133.16 0.6 129.94 0.6 129.74-1.3L129.74-1.3Q129.69-1.75 129.69-3.15L129.69-3.15 129.89-11.15Q129.89-11.5 129.49-11.5L129.49-11.5Q127.09-11.5 124.99-10.15 122.89-8.8 122.89-6.7L122.89-6.7Q122.89-5.6 123.49-4.85 124.09-4.1 124.96-4.1 125.84-4.1 126.41-4.45 126.99-4.8 127.09-4.85L127.09-4.85Q127.94-4.75 127.94-3.08 127.94-1.4 126.39-0.38 124.84 0.65 123.14 0.65 121.44 0.65 120.21 0.05 118.99-0.55 118.44-1.3 117.89-2.05 117.54-3L117.54-3Q117.19-4.15 117.19-5L117.19-5Q117.19-8.5 119.39-10.6 121.59-12.7 125.04-13.6L125.04-13.6Q129.59-14.5 129.79-15.25L129.79-15.25Q129.94-15.8 129.94-17.1L129.94-17.1Q129.94-19.75 127.24-19.75L127.24-19.75Q126.09-19.75 125.19-19.03 124.29-18.3 124.29-17.2L124.29-17.2 124.59-16Q124.49-15.15 122.79-15L122.79-15 122.24-14.95Q120.74-14.95 119.86-15.7 118.99-16.45 118.99-17.7L118.99-17.7Q118.99-18.5 119.51-19.48 120.04-20.45 120.84-21.05 121.64-21.65 123.31-22.13 124.99-22.6 126.54-22.6 128.09-22.6 128.94-22.5 129.79-22.4 131.26-22.03 132.74-21.65 133.71-20.6 134.69-19.55 134.76-18.38 134.84-17.2 134.84-15ZM162.78-27.7L162.78-27.7 162.98-29.25Q162.98-31.55 161.18-32.2L161.18-32.2Q159.78-32.65 159.03-32.65L159.03-32.65 158.98-32.65Q157.48-32.65 156.38-32.18 155.28-31.7 154.78-31L154.78-31Q153.73-29.55 153.58-27.95L153.58-27.95Q153.58-26.05 155.28-24.68 156.98-23.3 159.41-22.28 161.83-21.25 164.26-20.05 166.68-18.85 168.38-16.6 170.08-14.35 170.08-11.2L170.08-11.2Q170.08-5.05 166.21-2 162.33 1.05 157.41 1.05 152.48 1.05 149.26-1.18 146.03-3.4 146.03-7.15L146.03-7.15 146.03-7.2Q146.03-9.05 146.61-10.43 147.18-11.8 147.98-12.45L147.98-12.45Q149.63-13.8 150.98-13.9L150.98-13.9 151.58-13.95Q152.98-13.95 154.13-13.28 155.28-12.6 155.28-11.4L155.28-11.4Q155.28-10.8 154.63-10.4 153.98-10 153.51-9.2 153.03-8.4 152.98-7.85L152.98-7.85 152.88-7.3Q152.88-4.25 155.68-3.25L155.68-3.25Q156.68-2.9 157.28-2.9L157.28-2.9Q160.03-2.9 161.71-4.55 163.38-6.2 163.38-8.75L163.38-8.75Q163.38-11.8 160.78-13.7L160.78-13.7Q158.83-15.1 156.56-16.05 154.28-17 153.48-17.4 152.68-17.8 151.78-18.35 150.88-18.9 149.78-19.9L149.78-19.9Q147.38-22 147.38-25.58 147.38-29.15 149.33-31.6L149.33-31.6Q152.83-36.05 159.83-36.05L159.83-36.05Q163.53-36.05 166.08-34.63 168.63-33.2 168.63-30.7L168.63-30.7Q168.63-28.9 167.61-27.7 166.58-26.5 164.98-26.5L164.98-26.5Q164.23-26.5 163.51-26.8 162.78-27.1 162.78-27.7ZM188.73-5.75L188.73-5.75Q188.73-2.9 186.45-1.03 184.18 0.85 181.03 0.85L181.03 0.85Q176.43 0.85 174.28-1.93 172.13-4.7 172.13-9.45L172.13-9.45Q172.13-14.5 174.38-18.4L174.38-18.4Q175.48-20.4 177.53-21.55 179.58-22.7 182.33-22.7L182.33-22.7Q186.48-22.7 188.18-19.9L188.18-19.9Q188.88-18.75 188.88-17.2L188.88-17.2Q188.88-14.8 186.88-13.6L186.88-13.6Q186.08-13.15 185.4-13.15 184.73-13.15 184.3-13.23 183.88-13.3 183.18-13.9 182.48-14.5 182.48-15.55L182.48-15.55Q182.53-16.1 183.33-16.45L183.33-16.45Q184.08-16.9 184.08-18.05L184.08-18.05Q184.08-20 181.68-20L181.68-20Q181.08-20 180.25-19.48 179.43-18.95 178.88-18.13 178.33-17.3 177.85-15.53 177.38-13.75 177.38-12.13 177.38-10.5 177.5-9.68 177.63-8.85 178.05-7.43 178.48-6 179.65-5.1 180.83-4.2 182.58-4.2L182.58-4.2Q184.68-4.2 186.28-5.95L186.28-5.95Q186.93-6.65 187.33-7.65L187.33-7.65Q187.53-8.05 187.83-8.05L187.83-8.05Q188.28-8.05 188.5-7.23 188.73-6.4 188.73-5.75ZM196.28-18.85L196.28-18.85Q194.98-18.8 194.4-18.78 193.83-18.75 193.83-19.05 193.83-19.35 194.13-19.65L194.13-19.65Q197.33-22.6 204.93-22.6L204.93-22.6Q207.53-22.6 209.03-22.15L209.03-22.15 209.53-22Q210.13-21.75 210.13-21.45L210.13-21.45Q210.13-21.2 209.78-21.05L209.78-21.05Q208.43-20.65 207.18-19.78 205.93-18.9 205.93-18.55L205.93-18.55 206.23-18.2Q207.83-17.3 208.7-15.35 209.58-13.4 209.68-11.9L209.68-11.9 209.78-10.35Q209.78-5.4 207.03-2.2 204.28 1 199.53 1L199.53 1Q197.13 1 195.38 0.15 193.63-0.7 192.8-1.78 191.98-2.85 191.48-4.2L191.48-4.2Q190.88-6.05 190.88-8.03 190.88-10 191.55-12 192.23-14 193.1-14.95 193.98-15.9 195.08-16.5L195.08-16.5Q196.48-17.25 197.33-17.25 198.18-17.25 198.18-16.9L198.18-16.9 197.88-16.4Q196.78-15.1 196.3-13 195.83-10.9 195.83-9.28 195.83-7.65 196.23-6.05 196.63-4.45 197.13-3.68 197.63-2.9 198.28-2.5L198.28-2.5Q199.23-1.9 200.28-1.9 201.33-1.9 202.33-2.73 203.33-3.55 203.78-4.9L203.78-4.9Q204.68-7.4 204.68-10.05L204.68-10.05Q204.68-14.25 202.55-16.55 200.43-18.85 196.28-18.85ZM227.37-17.2L227.12-13.4 227.32-11.65Q227.32-10.7 225.52-10.7L225.52-10.7Q221.87-10.7 221.87-13.45L221.87-13.45Q221.87-14.1 222.22-15.25 222.57-16.4 222.57-17.25 222.57-18.1 222.07-18.73 221.57-19.35 220.62-19.35 219.67-19.35 219-18.68 218.32-18 218.17-17.3L218.17-17.3 217.97-16.6Q217.67-15.05 217.67-11.43 217.67-7.8 217.77-5.73 217.87-3.65 217.97-2.88 218.07-2.1 218.07-1.95L218.07-1.95Q218.07-0.7 216.52 0.08 214.97 0.85 213.42 0.85 211.87 0.85 211.87 0.2L211.87 0.2 212.12-1.35Q212.82-5.7 212.82-12.7 212.82-19.7 212.32-22.2L212.32-22.2Q212.32-22.8 213.37-22.8L213.37-22.8Q216.07-22.8 216.97-20.95L216.97-20.95Q217.02-20.75 217.15-20.75 217.27-20.75 217.82-21.2L217.82-21.2Q219.47-22.55 221.72-22.55L221.72-22.55Q223.12-22.55 224.52-22L224.52-22Q227.37-20.85 227.37-17.2L227.37-17.2ZM234.77-26.75L234.77-26.75 233.57-26.8Q232.22-26.8 231.82-26.15L231.82-26.15Q231.72-26 231.57-26L231.57-26Q230.92-26 230.92-28.23 230.92-30.45 231.6-31.05 232.27-31.65 233.95-31.65 235.62-31.65 236.22-31.08 236.82-30.5 236.82-29.15 236.82-27.8 236.37-27.28 235.92-26.75 234.77-26.75ZM230.77-1.5L230.77-1.5 231.32-13.15Q231.32-17.3 230.37-18.8L230.37-18.8Q230.07-19.3 229.67-19.55L229.67-19.55Q229.37-19.65 229.37-19.95L229.37-19.95Q229.37-20.85 231.92-21.7 234.47-22.55 235.65-22.55 236.82-22.55 236.87-21.95L236.87-21.95Q236.87-20.95 236.6-16.28 236.32-11.6 236.32-6.45 236.32-1.3 236.92-0.05L236.92-0.05Q237.07 0.2 237.07 0.45L237.07 0.45Q237.07 1.1 235.17 1.1 233.27 1.1 231.27 0.1L231.27 0.1Q230.77-0.15 230.77-1.5ZM240.12 0.35L240.12 0.35Q241.02-5.05 241.02-12.6 241.02-20.15 240.57-22.4L240.57-22.4Q240.57-23.05 242.07-23.05L242.07-23.05Q244.37-23.05 245.12-21.3L245.12-21.3Q245.17-21.15 245.37-21.15 245.57-21.15 245.67-21.25L245.67-21.25Q247.22-22.85 250.47-22.85 253.72-22.85 255.62-21.2 257.52-19.55 257.52-16.4L257.52-16.4Q257.52-14.5 257.19-11 256.87-7.5 256.87-5.8L256.87-5.8Q256.87-1.75 258.22 0.05L258.22 0.05Q258.42 0.3 258.42 0.55L258.42 0.55Q258.42 1.2 257.02 1.2L257.02 1.2Q250.82 1.2 250.82-4.3L250.82-4.3Q250.82-6.4 251.77-10.15 252.72-13.9 252.72-15.85L252.72-15.85Q252.72-19.85 249.42-19.85L249.42-19.85Q247.82-19.85 246.99-18.9 246.17-17.95 246.07-16.73 245.97-15.5 245.97-12.1L245.97-12.1Q245.97-6.9 246.32-3.05L246.32-3.05 246.42-1.95Q246.42-0.55 244.59 0.23 242.77 1 241.44 1 240.12 1 240.12 0.35ZM263.37-20.18Q264.47-21.3 266.27-22.08 268.07-22.85 269.72-22.85 271.37-22.85 273.07-22.1L273.07-22.1Q273.27-22.1 273.37-22.2L273.37-22.2Q274.67-23.5 277.17-23.5L277.17-23.5Q277.77-23.5 277.77-22.95L277.77-22.95Q277.77-22.9 277.67-22.5 277.57-22.1 277.42-21.33 277.27-20.55 277.17-19.45L277.17-19.45Q276.82-16.6 276.79-13.15 276.77-9.7 276.77-6.25L276.77-6.25 276.92 4.25Q276.92 9.3 274.32 12.65L274.32 12.65Q273.27 14 271.14 15 269.02 16 266.17 16L266.17 16Q265.52 15.6 265.52 15.2 265.52 14.8 266.07 14.55L266.07 14.55Q269.22 13.1 270.57 7.68 271.92 2.25 271.92-8.8L271.92-8.8 271.82-15.8 271.67-19.2Q271.67-19.65 270.27-19.85L270.27-19.85Q268.47-19.85 267.24-18.68 266.02-17.5 265.57-15.6L265.57-15.6Q264.77-12.55 264.77-10.33 264.77-8.1 265.49-6.4 266.22-4.7 268.02-4.7L268.02-4.7Q268.52-4.7 268.94-4.9 269.37-5.1 269.52-5.1L269.52-5.1Q270.02-5.1 270.02-4.1 270.02-3.1 269.87-2.48 269.72-1.85 269.27-1.1L269.27-1.1Q268.27 0.55 265.37 0.55L265.37 0.55Q262.47 0.55 261.22-1.55L261.22-1.55Q259.92-3.7 259.72-5.4L259.72-5.4Q259.42-7.95 259.42-8.75 259.42-9.55 259.44-10.03 259.47-10.5 259.69-11.93 259.92-13.35 260.29-14.63 260.67-15.9 261.47-17.48 262.27-19.05 263.37-20.18ZM304.91-27.7L304.91-27.7 305.11-29.25Q305.11-31.55 303.31-32.2L303.31-32.2Q301.91-32.65 301.16-32.65L301.16-32.65 301.11-32.65Q299.61-32.65 298.51-32.18 297.41-31.7 296.91-31L296.91-31Q295.86-29.55 295.71-27.95L295.71-27.95Q295.71-26.05 297.41-24.68 299.11-23.3 301.54-22.28 303.96-21.25 306.39-20.05 308.81-18.85 310.51-16.6 312.21-14.35 312.21-11.2L312.21-11.2Q312.21-5.05 308.34-2 304.46 1.05 299.54 1.05 294.61 1.05 291.39-1.18 288.16-3.4 288.16-7.15L288.16-7.15 288.16-7.2Q288.16-9.05 288.74-10.43 289.31-11.8 290.11-12.45L290.11-12.45Q291.76-13.8 293.11-13.9L293.11-13.9 293.71-13.95Q295.11-13.95 296.26-13.28 297.41-12.6 297.41-11.4L297.41-11.4Q297.41-10.8 296.76-10.4 296.11-10 295.64-9.2 295.16-8.4 295.11-7.85L295.11-7.85 295.01-7.3Q295.01-4.25 297.81-3.25L297.81-3.25Q298.81-2.9 299.41-2.9L299.41-2.9Q302.16-2.9 303.84-4.55 305.51-6.2 305.51-8.75L305.51-8.75Q305.51-11.8 302.91-13.7L302.91-13.7Q300.96-15.1 298.69-16.05 296.41-17 295.61-17.4 294.81-17.8 293.91-18.35 293.01-18.9 291.91-19.9L291.91-19.9Q289.51-22 289.51-25.58 289.51-29.15 291.46-31.6L291.46-31.6Q294.96-36.05 301.96-36.05L301.96-36.05Q305.66-36.05 308.21-34.63 310.76-33.2 310.76-30.7L310.76-30.7Q310.76-28.9 309.74-27.7 308.71-26.5 307.11-26.5L307.11-26.5Q306.36-26.5 305.64-26.8 304.91-27.1 304.91-27.7ZM323.36 13.85L323.36 13.85Q323.36 14.45 322.76 14.45L322.76 14.45 322.71 14.45Q321.06 14.45 318.98 13.3 316.91 12.15 316.91 10.65 316.91 9.15 318.81 5.43 320.71 1.7 320.71 0.45L320.71 0.45Q320.71-0.9 319.41-4.4L319.41-4.4Q317.76-8.95 316.78-11.8 315.81-14.65 314.68-16.82 313.56-19 313.06-19.4L313.06-19.4 312.56-19.75Q312.01-20.05 312.01-20.4L312.01-20.4Q312.01-21.1 314.18-21.83 316.36-22.55 318.01-22.55L318.01-22.55Q318.76-22.55 319.26-21.35L319.26-21.35Q320.16-19 321.21-14.85L321.21-14.85Q323.76-6.35 324.41-6.35L324.41-6.35Q324.86-6.35 326.23-9.85 327.61-13.35 327.61-15.5L327.61-15.5Q327.61-19.25 325.41-19.9L325.41-19.9Q324.91-20 324.91-20.4L324.91-20.4Q324.91-21.3 327.26-22.13 329.61-22.95 331.51-22.95L331.51-22.95Q333.16-22.95 333.16-20.8L333.16-20.8Q333.16-19.15 332.46-16.95 331.76-14.75 331.16-13.48 330.56-12.2 328.18-7.58 325.81-2.95 324.26 0.55L324.26 0.55Q322.56 4.75 322.56 9.1L322.56 9.1Q322.56 11.4 322.96 12.55 323.36 13.7 323.36 13.85ZM348.66-6.85L348.66-6.85Q348.66-4.7 347.83-3.1 347.01-1.5 345.96-0.75 344.91 0 343.46 0.45L343.46 0.45Q341.56 1.05 340.01 1.05L340.01 1.05Q336.76 1.05 334.61-0.23 332.46-1.5 332.46-4.3L332.46-4.3Q332.46-5.95 333.36-7L333.36-7Q334.76-8.55 336.71-8.55L336.71-8.55Q337.31-8.55 337.31-8L337.31-8Q337.31-7.95 337.08-7.23 336.86-6.5 336.86-5.4 336.86-4.3 337.73-3.45 338.61-2.6 339.86-2.6 341.11-2.6 341.86-3.03 342.61-3.45 342.91-4.1L342.91-4.1Q343.36-5 343.36-5.8L343.36-5.8Q343.36-7.25 341.91-8.3 340.46-9.35 338.71-9.95 336.96-10.55 335.51-11.95 334.06-13.35 334.06-15.45L334.06-15.45Q334.06-19.05 336.33-20.85 338.61-22.65 342.51-22.65L342.51-22.65Q344.21-22.65 346.08-22.18 347.96-21.7 347.96-20.58 347.96-19.45 347.58-18.5 347.21-17.55 346.66-17.55L346.66-17.55Q346.36-17.55 346.26-17.78 346.16-18 345.91-18.3 345.66-18.6 344.71-19.07 343.76-19.55 343.08-19.55 342.41-19.55 342.18-19.53 341.96-19.5 341.41-19.38 340.86-19.25 340.41-19L340.41-19Q339.26-18.35 339.26-17.1L339.26-17.1Q339.26-16.3 339.61-15.93 339.96-15.55 340.16-15.35 340.36-15.15 340.86-14.88 341.36-14.6 341.56-14.5 341.76-14.4 342.46-14.08 343.16-13.75 343.36-13.65L343.36-13.65Q348.66-11.15 348.66-6.85ZM349.9-19.5L349.9-19.5 350.05-21.5Q350.1-21.95 350.75-21.95L350.75-21.95 352.5-21.95 352.3-25.95 352.3-26.15Q352.3-27.3 354.05-28.35 355.8-29.4 357.25-29.4L357.25-29.4Q357.7-29.4 357.7-29L357.7-29 357.7-28.95Q357.5-27.6 357.3-22L357.3-22Q359.5-22 360.1-22.1 360.7-22.2 360.75-22.2L360.75-22.2Q361.1-22.2 361.1-21.6 361.1-21 360.55-20.08 360-19.15 359.35-19.1L359.35-19.1 357.25-19.1Q357.2-17.4 357.2-13.38 357.2-9.35 357.28-6.75 357.35-4.15 357.45-2.83 357.55-1.5 357.68-0.7 357.8 0.1 357.88 0.45 357.95 0.8 357.95 0.9L357.95 0.9Q357.95 1.4 357.3 1.45L357.3 1.45Q355.35 1.45 353.43 0.9 351.5 0.35 351.5-1L351.5-1Q352.55-9.4 352.55-19.05L352.55-19.05Q351.2-19.05 350.5-18.95L350.5-18.95 350.45-18.95Q350-18.95 349.9-19.5ZM366.1-12.7L366.1-12.7 366.15-11.45Q366.15-11.15 366.55-11.15L366.55-11.15Q368.15-11.3 369.35-11.98 370.55-12.65 371.15-13.5L371.15-13.5Q372.35-15.35 372.45-16.7L372.45-16.7 372.5-17.3Q372.5-20 370.35-20L370.35-20Q368.75-20 367.75-18.6L367.75-18.6Q366.1-16.4 366.1-12.7ZM377-6.05L377-6.05Q377-4.15 376.23-2.73 375.45-1.3 374.48-0.63 373.5 0.05 372.2 0.45L372.2 0.45Q370.55 0.95 369.05 0.95L369.05 0.95Q364.85 0.95 362.85-2.2 360.85-5.35 360.85-10.23 360.85-15.1 363.33-18.9 365.8-22.7 370.75-22.7L370.75-22.7Q375.25-22.7 376.85-19.55L376.85-19.55Q377.5-18.35 377.5-17.28 377.5-16.2 377.4-15.58 377.3-14.95 376.7-13.7 376.1-12.45 375.1-11.45 374.1-10.45 371.95-9.55 369.8-8.65 366.9-8.35L366.9-8.35Q366.5-8.35 366.5-8L366.5-8Q366.5-7.55 366.83-6.68 367.15-5.8 367.55-5.2L367.55-5.2Q368.65-3.8 370.8-3.8L370.8-3.8Q372.95-3.8 374.45-5.2L374.45-5.2Q375.25-5.95 375.75-7.05L375.75-7.05Q375.95-7.45 376.28-7.45 376.6-7.45 376.8-6.9 377-6.35 377-6.05ZM391.05 0.3L391.05 0.3Q391.75-3.2 391.75-9.53 391.75-15.85 391.7-17 391.65-18.15 391-18.85 390.35-19.55 389.87-19.65 389.4-19.75 388.55-19.75 387.7-19.75 386.9-18.98 386.1-18.2 385.95-17.4L385.95-17.4 385.75-16.6Q385.6-15.1 385.6-9.95 385.6-4.8 385.82-3.48 386.05-2.15 386.05-1.7 386.05-1.25 385.65-0.8L385.65-0.8Q383.95 1 380.85 1L380.85 1Q379.75 1 379.75 0.35L379.75 0.35Q380.75-5.65 380.75-14.95L380.75-14.95Q380.75-18.4 380.6-19.6L380.6-19.6 380.4-21.2Q380.35-21.75 380.2-22.4L380.2-22.4Q380.2-23 381.75-23L381.75-23Q384.05-23 384.8-21.3L384.8-21.3Q384.85-21.1 385-21.1 385.15-21.1 385.7-21.5L385.7-21.5Q387.35-22.8 390.15-22.8L390.15-22.8Q391.75-22.8 393.3-22.2 394.85-21.6 395.45-20.6L395.45-20.6Q395.5-20.5 395.6-20.5 395.7-20.5 395.9-20.7L395.9-20.7Q398-22.8 401.35-22.8L401.35-22.8Q405.8-22.8 407.45-19.6L407.45-19.6Q408.05-18.35 408.05-16.45 408.05-14.55 407.75-11.05 407.45-7.55 407.45-5.7 407.45-3.85 407.82-2.35 408.2-0.85 408.57-0.2 408.95 0.45 408.95 0.55L408.95 0.55Q408.95 1.2 407.55 1.2L407.55 1.2Q404.1 1.2 402.75-0.2 401.4-1.6 401.4-3.88 401.4-6.15 402.32-10.03 403.25-13.9 403.25-15.85L403.25-15.85Q403.25-19.8 400.05-19.8L400.05-19.8Q398.7-19.8 397.9-19 397.1-18.2 396.95-17.4L396.95-17.4 396.85-16.6Q396.65-14.3 396.65-11.05 396.65-7.8 396.75-5.98 396.85-4.15 396.95-3.13 397.05-2.1 397.05-1.9L397.05-1.9Q397.05-0.5 395.3 0.25 393.55 1 391.9 1L391.9 1Q391.05 1 391.05 0.3Z" opacity="1" transform="matrix(1,0,0,1,0,0)" fill="white" class="slogan-text-1" id="SvgjsPath1849"></path></svg></g></svg></g></svg></g></svg></g><g transform="matrix(1,0,0,1,0,23.451709620919075)"><svg viewBox="0 0 134.437248 136.32913216358713" height="136.32913216358713" width="134.437248"><g><svg xmlns="http://www.w3.org/2000/svg" xmlns:xlink="http://www.w3.org/1999/xlink" version="1.1" x="0" y="0" viewBox="5.611392405413278 5.03 88.77569349357734 90.02500000000003" enable-background="new 0 0 100 100" xml:space="preserve" height="136.32913216358713" width="134.437248" class="icon-icon-0" data-fill-palette-color="accent" id="SvgjsSvg1848"><g fill="black"><path d="M50.489 5.03c-5.545 0-10.058 4.511-10.058 10.057s4.512 10.059 10.058 10.059c5.547 0 10.058-4.513 10.058-10.059S56.036 5.03 50.489 5.03z" fill="black"></path><path d="M65.216 59.285c0.839 3.503 9.153 5.193 16.49 6.686 2.944 0.6 5.488 1.117 7.024 1.665 0.615 0.22 1.217 0.331 1.793 0.331 2.335 0 3.73-1.803 3.855-3.499 0.104-1.421-0.668-3.213-3.186-3.587-4.896-0.725-12.808-3.803-16.849-6.111-3.688-2.109-4.627-11.376-4.827-14.167-0.033-0.471-0.035-0.954-0.037-1.463-0.011-2.25-0.024-4.801-2.894-7.191-1.487-1.24-3.103-1.679-4.665-2.103-2.076-0.565-4.223-1.147-6.295-3.634-0.097-0.117-0.257-0.163-0.399-0.117-1.506 0.483-3.062 0.729-4.628 0.729-2.354 0-4.023-0.562-4.376-0.692-0.022-0.014-0.044-0.026-0.068-0.038-0.151-0.062-0.325-0.019-0.428 0.107-2.072 2.486-4.219 3.069-6.295 3.633-1.562 0.424-3.177 0.864-4.665 2.103-2.87 2.39-2.883 4.941-2.894 7.192-0.002 0.51-0.004 0.992-0.039 1.463-0.175 2.439-2.068 12.23-5.808 14.367-4.041 2.308-11.953 5.386-16.848 6.111-2.627 0.389-3.685 2.447-3.555 4.195 0.112 1.536 1.206 3.188 3.337 3.188 0.536 0 1.11-0.107 1.705-0.32 1.519-0.542 4.125-1.085 7.143-1.712 7.353-1.529 16.503-3.433 17.347-6.948 0.896-3.727 3.281-9.283 4.155-11.256 0.87 1.929 2.955 7.515 0.76 12.781l-0.46 1.11c-1.72 4.155-2.133 5.034-3.539 5.034-0.596 0-1.37-0.156-2.48-0.396-1.437-0.311-4.317-0.51-7.341-0.51-4.071 0-13.897 0.375-17.204 3.861-0.78 0.823-1.149 1.77-1.093 2.815 0.407 7.73 6.43 9.31 8.022 9.31 0.725 0 2.091 0.944 3.411 1.856 1.593 1.103 3.098 2.143 4.194 2.143 0.209 0 0.4-0.038 0.569-0.113 0.226-0.101 0.49-0.175 0.789-0.221-1.099 0.328-2.168 0.904-2.774 1.909-0.81 1.344-0.618 3.168 0.57 5.421 0.639 1.213 1.602 1.827 2.861 1.827 1.671 0 3.526-1.062 5.164-1.999 1.039-0.594 2.021-1.155 2.524-1.155 0.044 0 0.081 0.006 0.111 0.015 0.889 0.296 4.378 0.4 7.096 0.4 3.865 0 8.759-0.197 10.077-0.754l0.621 0.008c1.67 0.72 8.473 0.757 9.842 0.757 2.641 0 6.04-0.105 6.928-0.401 0.03-0.009 0.068-0.015 0.112-0.015 0.503 0 1.484 0.562 2.524 1.157 1.637 0.936 3.491 1.998 5.163 1.998l0 0c1.259 0 2.222-0.615 2.86-1.828 1.189-2.253 1.38-4.077 0.569-5.421-0.604-1.004-1.674-1.58-2.772-1.909 0.299 0.047 0.562 0.121 0.789 0.221 0.169 0.076 0.36 0.113 0.568 0.113 1.097 0 2.602-1.04 4.192-2.141 1.323-0.914 2.688-1.858 3.412-1.858 1.593 0 7.616-1.579 8.024-9.308 0.055-1.048-0.314-1.994-1.094-2.817C89 66.626 79.175 66.249 75.104 66.249c-3.023 0-5.904 0.2-7.341 0.51-1.112 0.239-1.886 0.396-2.481 0.396-1.406 0-1.819-0.88-3.539-5.037l-0.46-1.108c-2.152-5.166-0.188-10.638 0.71-12.666C62.665 50.404 64.341 55.646 65.216 59.285z" fill="black"></path></g></svg></g></svg></g></svg></g><defs><mask></mask></defs></svg><rect width="395.52" height="118.39303295486879" fill="black" stroke="none" visibility="hidden"></rect></g></mask><linearGradient x1="0" x2="1" y1="0.5" y2="0.5" id="049b1c67-18a6-41a0-b509-23631bf206de"><stop stop-color="#ffa62e" offset="0"></stop><stop stop-color="#f71b3d" offset="1"></stop></linearGradient><rect width="395.5200536200276" height="118.39303295486879" fill="url(#049b1c67-18a6-41a0-b509-23631bf206de)" mask="url(#62bb5c27-3293-48ea-a929-0b935d1808c7)" data-fill-palette-color="secondary"></rect></svg><rect width="395.52" height="118.39303295486879" fill="none" stroke="none" visibility="hidden"></rect></g></svg></g></svg>