<svg xmlns="http://www.w3.org/2000/svg" version="1.1" xmlns:xlink="http://www.w3.org/1999/xlink" xmlns:svgjs="http://svgjs.dev/svgjs" width="1500" height="2806" viewBox="0 0 1500 2806"><g transform="matrix(1,0,0,1,-0.4805358587146884,1.136032388663807)"><svg viewBox="0 0 132 247" data-background-color="#ffffff" preserveAspectRatio="xMidYMid meet" height="2806" width="1500" xmlns="http://www.w3.org/2000/svg" xmlns:xlink="http://www.w3.org/1999/xlink"><g id="tight-bounds" transform="matrix(1,0,0,1,0.04228715556689622,-0.09999999999999432)"><svg viewBox="0 0 131.9154256888662 247.2" height="247.2" width="131.9154256888662"><g><svg viewBox="0 0 397.4975999999999 744.8818529514348" height="247.2" width="131.9154256888662"><g><rect width="397.4975999999999" height="15.576582312628855" x="0" y="515.8031723409619" fill="#01ff70" opacity="1" stroke-width="0" stroke="transparent" fill-opacity="1" class="rect-qz-0" data-fill-palette-color="primary" rx="1%" id="qz-0" data-palette-color="#01ff70"></rect></g><g transform="matrix(1,0,0,1,0.9887999999999693,572.1561481421479)"><svg viewBox="0 0 395.52 172.72570480928687" height="172.72570480928687" width="395.52"><g id="textblocktransform"><svg viewBox="0 0 395.52 172.72570480928687" height="172.72570480928687" width="395.52" id="textblock"><g><svg viewBox="0 0 395.52 172.72570480928687" height="172.72570480928687" width="395.52"><g transform="matrix(1,0,0,1,0,0)"><svg width="395.52" viewBox="1.25 -23.5 90.44 39.5" height="172.72570480928687" data-palette-color="#01ff70"><path d="M17.85-5.75L17.85-5.75Q17.85-2.9 15.58-1.03 13.3 0.85 10.15 0.85L10.15 0.85Q5.55 0.85 3.4-1.93 1.25-4.7 1.25-9.45L1.25-9.45Q1.25-14.5 3.5-18.4L3.5-18.4Q4.6-20.4 6.65-21.55 8.7-22.7 11.45-22.7L11.45-22.7Q15.6-22.7 17.3-19.9L17.3-19.9Q18-18.75 18-17.2L18-17.2Q18-14.8 16-13.6L16-13.6Q15.2-13.15 14.53-13.15 13.85-13.15 13.43-13.23 13-13.3 12.3-13.9 11.6-14.5 11.6-15.55L11.6-15.55Q11.65-16.1 12.45-16.45L12.45-16.45Q13.2-16.9 13.2-18.05L13.2-18.05Q13.2-20 10.8-20L10.8-20Q10.2-20 9.38-19.48 8.55-18.95 8-18.13 7.45-17.3 6.98-15.53 6.5-13.75 6.5-12.13 6.5-10.5 6.63-9.68 6.75-8.85 7.18-7.43 7.6-6 8.78-5.1 9.95-4.2 11.7-4.2L11.7-4.2Q13.8-4.2 15.4-5.95L15.4-5.95Q16.05-6.65 16.45-7.65L16.45-7.65Q16.65-8.05 16.95-8.05L16.95-8.05Q17.4-8.05 17.63-7.23 17.85-6.4 17.85-5.75ZM23.8-20.18Q24.9-21.3 26.7-22.08 28.5-22.85 30.15-22.85 31.8-22.85 33.5-22.1L33.5-22.1Q33.7-22.1 33.8-22.2L33.8-22.2Q35.1-23.5 37.6-23.5L37.6-23.5Q38.2-23.5 38.2-22.95L38.2-22.95Q38.2-22.9 38.1-22.5 38-22.1 37.85-21.33 37.7-20.55 37.6-19.45L37.6-19.45Q37.25-16.6 37.22-13.15 37.2-9.7 37.2-6.25L37.2-6.25 37.35 4.25Q37.35 9.3 34.75 12.65L34.75 12.65Q33.7 14 31.57 15 29.45 16 26.6 16L26.6 16Q25.95 15.6 25.95 15.2 25.95 14.8 26.5 14.55L26.5 14.55Q29.65 13.1 31 7.68 32.35 2.25 32.35-8.8L32.35-8.8 32.25-15.8 32.1-19.2Q32.1-19.65 30.7-19.85L30.7-19.85Q28.9-19.85 27.67-18.68 26.45-17.5 26-15.6L26-15.6Q25.2-12.55 25.2-10.33 25.2-8.1 25.92-6.4 26.65-4.7 28.45-4.7L28.45-4.7Q28.95-4.7 29.37-4.9 29.8-5.1 29.95-5.1L29.95-5.1Q30.45-5.1 30.45-4.1 30.45-3.1 30.3-2.48 30.15-1.85 29.7-1.1L29.7-1.1Q28.7 0.55 25.8 0.55L25.8 0.55Q22.9 0.55 21.65-1.55L21.65-1.55Q20.35-3.7 20.15-5.4L20.15-5.4Q19.85-7.95 19.85-8.75 19.85-9.55 19.87-10.03 19.9-10.5 20.12-11.93 20.35-13.35 20.72-14.63 21.1-15.9 21.9-17.48 22.7-19.05 23.8-20.18ZM49.3 13.85L49.3 13.85Q49.3 14.45 48.7 14.45L48.7 14.45 48.65 14.45Q47 14.45 44.92 13.3 42.85 12.15 42.85 10.65 42.85 9.15 44.75 5.43 46.65 1.7 46.65 0.45L46.65 0.45Q46.65-0.9 45.35-4.4L45.35-4.4Q43.7-8.95 42.72-11.8 41.75-14.65 40.62-16.82 39.5-19 39-19.4L39-19.4 38.5-19.75Q37.95-20.05 37.95-20.4L37.95-20.4Q37.95-21.1 40.12-21.83 42.3-22.55 43.95-22.55L43.95-22.55Q44.7-22.55 45.2-21.35L45.2-21.35Q46.1-19 47.15-14.85L47.15-14.85Q49.7-6.35 50.35-6.35L50.35-6.35Q50.8-6.35 52.17-9.85 53.55-13.35 53.55-15.5L53.55-15.5Q53.55-19.25 51.35-19.9L51.35-19.9Q50.85-20 50.85-20.4L50.85-20.4Q50.85-21.3 53.2-22.13 55.55-22.95 57.45-22.95L57.45-22.95Q59.1-22.95 59.1-20.8L59.1-20.8Q59.1-19.15 58.4-16.95 57.7-14.75 57.1-13.48 56.5-12.2 54.12-7.58 51.75-2.95 50.2 0.55L50.2 0.55Q48.5 4.75 48.5 9.1L48.5 9.1Q48.5 11.4 48.9 12.55 49.3 13.7 49.3 13.85ZM74.59-6.85L74.59-6.85Q74.59-4.7 73.77-3.1 72.94-1.5 71.89-0.75 70.84 0 69.39 0.45L69.39 0.45Q67.49 1.05 65.94 1.05L65.94 1.05Q62.69 1.05 60.54-0.23 58.39-1.5 58.39-4.3L58.39-4.3Q58.39-5.95 59.29-7L59.29-7Q60.69-8.55 62.64-8.55L62.64-8.55Q63.24-8.55 63.24-8L63.24-8Q63.24-7.95 63.02-7.23 62.79-6.5 62.79-5.4 62.79-4.3 63.67-3.45 64.54-2.6 65.79-2.6 67.04-2.6 67.79-3.03 68.54-3.45 68.84-4.1L68.84-4.1Q69.29-5 69.29-5.8L69.29-5.8Q69.29-7.25 67.84-8.3 66.39-9.35 64.64-9.95 62.89-10.55 61.44-11.95 59.99-13.35 59.99-15.45L59.99-15.45Q59.99-19.05 62.27-20.85 64.54-22.65 68.44-22.65L68.44-22.65Q70.14-22.65 72.02-22.18 73.89-21.7 73.89-20.58 73.89-19.45 73.52-18.5 73.14-17.55 72.59-17.55L72.59-17.55Q72.29-17.55 72.19-17.78 72.09-18 71.84-18.3 71.59-18.6 70.64-19.07 69.69-19.55 69.02-19.55 68.34-19.55 68.12-19.53 67.89-19.5 67.34-19.38 66.79-19.25 66.34-19L66.34-19Q65.19-18.35 65.19-17.1L65.19-17.1Q65.19-16.3 65.54-15.93 65.89-15.55 66.09-15.35 66.29-15.15 66.79-14.88 67.29-14.6 67.49-14.5 67.69-14.4 68.39-14.08 69.09-13.75 69.29-13.65L69.29-13.65Q74.59-11.15 74.59-6.85ZM91.69-6.85L91.69-6.85Q91.69-4.7 90.87-3.1 90.04-1.5 88.99-0.75 87.94 0 86.49 0.45L86.49 0.45Q84.59 1.05 83.04 1.05L83.04 1.05Q79.79 1.05 77.64-0.23 75.49-1.5 75.49-4.3L75.49-4.3Q75.49-5.95 76.39-7L76.39-7Q77.79-8.55 79.74-8.55L79.74-8.55Q80.34-8.55 80.34-8L80.34-8Q80.34-7.95 80.12-7.23 79.89-6.5 79.89-5.4 79.89-4.3 80.77-3.45 81.64-2.6 82.89-2.6 84.14-2.6 84.89-3.03 85.64-3.45 85.94-4.1L85.94-4.1Q86.39-5 86.39-5.8L86.39-5.8Q86.39-7.25 84.94-8.3 83.49-9.35 81.74-9.95 79.99-10.55 78.54-11.95 77.09-13.35 77.09-15.45L77.09-15.45Q77.09-19.05 79.37-20.85 81.64-22.65 85.54-22.65L85.54-22.65Q87.24-22.65 89.12-22.18 90.99-21.7 90.99-20.58 90.99-19.45 90.62-18.5 90.24-17.55 89.69-17.55L89.69-17.55Q89.39-17.55 89.29-17.78 89.19-18 88.94-18.3 88.69-18.6 87.74-19.07 86.79-19.55 86.12-19.55 85.44-19.55 85.22-19.53 84.99-19.5 84.44-19.38 83.89-19.25 83.44-19L83.44-19Q82.29-18.35 82.29-17.1L82.29-17.1Q82.29-16.3 82.64-15.93 82.99-15.55 83.19-15.35 83.39-15.15 83.89-14.88 84.39-14.6 84.59-14.5 84.79-14.4 85.49-14.08 86.19-13.75 86.39-13.65L86.39-13.65Q91.69-11.15 91.69-6.85Z" opacity="1" transform="matrix(1,0,0,1,0,0)" fill="#01ff70" class="wordmark-text-0" data-fill-palette-color="primary" id="text-0"></path></svg></g></svg></g></svg></g></svg></g><g transform="matrix(1,0,0,1,9.721047457257981,0)"><svg viewBox="0 0 378.05550508548396 475.0267788524046" height="475.0267788524046" width="378.05550508548396"><g><svg xmlns="http://www.w3.org/2000/svg" xmlns:xlink="http://www.w3.org/1999/xlink" version="1.1" x="0" y="0" viewBox="0.0011845906120626151 0.0012840916272822411 79.58327828800667 99.99639689711232" enable-background="new 0 0 79.584 100" xml:space="preserve" width="378.05550508548396" height="475.0267788524046" class="icon-icon-0" data-fill-palette-color="accent" id="icon-0"></svg></g></svg></g><g></g></svg></g><defs></defs><mask id="1ebe3ea4-14a0-4767-983e-691ea4418032"><g id="SvgjsG1730"><svg viewBox="0 0 131.9154256888662 247.2" height="247.2" width="131.9154256888662"><g><svg viewBox="0 0 397.4975999999999 744.8818529514348" height="247.2" width="131.9154256888662"><g><rect width="397.4975999999999" height="15.576582312628855" x="0" y="515.8031723409619" fill="black" opacity="1" stroke-width="0" stroke="transparent" fill-opacity="1" class="rect-qz-0" rx="1%" id="SvgjsRect1729" data-palette-color="#01ff70"></rect></g><g transform="matrix(1,0,0,1,0.9887999999999693,572.1561481421479)"><svg viewBox="0 0 395.52 172.72570480928687" height="172.72570480928687" width="395.52"><g id="SvgjsG1728"><svg viewBox="0 0 395.52 172.72570480928687" height="172.72570480928687" width="395.52" id="SvgjsSvg1727"><g><svg viewBox="0 0 395.52 172.72570480928687" height="172.72570480928687" width="395.52"><g transform="matrix(1,0,0,1,0,0)"><svg width="395.52" viewBox="1.25 -23.5 90.44 39.5" height="172.72570480928687" data-palette-color="#01ff70"><path d="M17.85-5.75L17.85-5.75Q17.85-2.9 15.58-1.03 13.3 0.85 10.15 0.85L10.15 0.85Q5.55 0.85 3.4-1.93 1.25-4.7 1.25-9.45L1.25-9.45Q1.25-14.5 3.5-18.4L3.5-18.4Q4.6-20.4 6.65-21.55 8.7-22.7 11.45-22.7L11.45-22.7Q15.6-22.7 17.3-19.9L17.3-19.9Q18-18.75 18-17.2L18-17.2Q18-14.8 16-13.6L16-13.6Q15.2-13.15 14.53-13.15 13.85-13.15 13.43-13.23 13-13.3 12.3-13.9 11.6-14.5 11.6-15.55L11.6-15.55Q11.65-16.1 12.45-16.45L12.45-16.45Q13.2-16.9 13.2-18.05L13.2-18.05Q13.2-20 10.8-20L10.8-20Q10.2-20 9.38-19.48 8.55-18.95 8-18.13 7.45-17.3 6.98-15.53 6.5-13.75 6.5-12.13 6.5-10.5 6.63-9.68 6.75-8.85 7.18-7.43 7.6-6 8.78-5.1 9.95-4.2 11.7-4.2L11.7-4.2Q13.8-4.2 15.4-5.95L15.4-5.95Q16.05-6.65 16.45-7.65L16.45-7.65Q16.65-8.05 16.95-8.05L16.95-8.05Q17.4-8.05 17.63-7.23 17.85-6.4 17.85-5.75ZM23.8-20.18Q24.9-21.3 26.7-22.08 28.5-22.85 30.15-22.85 31.8-22.85 33.5-22.1L33.5-22.1Q33.7-22.1 33.8-22.2L33.8-22.2Q35.1-23.5 37.6-23.5L37.6-23.5Q38.2-23.5 38.2-22.95L38.2-22.95Q38.2-22.9 38.1-22.5 38-22.1 37.85-21.33 37.7-20.55 37.6-19.45L37.6-19.45Q37.25-16.6 37.22-13.15 37.2-9.7 37.2-6.25L37.2-6.25 37.35 4.25Q37.35 9.3 34.75 12.65L34.75 12.65Q33.7 14 31.57 15 29.45 16 26.6 16L26.6 16Q25.95 15.6 25.95 15.2 25.95 14.8 26.5 14.55L26.5 14.55Q29.65 13.1 31 7.68 32.35 2.25 32.35-8.8L32.35-8.8 32.25-15.8 32.1-19.2Q32.1-19.65 30.7-19.85L30.7-19.85Q28.9-19.85 27.67-18.68 26.45-17.5 26-15.6L26-15.6Q25.2-12.55 25.2-10.33 25.2-8.1 25.92-6.4 26.65-4.7 28.45-4.7L28.45-4.7Q28.95-4.7 29.37-4.9 29.8-5.1 29.95-5.1L29.95-5.1Q30.45-5.1 30.45-4.1 30.45-3.1 30.3-2.48 30.15-1.85 29.7-1.1L29.7-1.1Q28.7 0.55 25.8 0.55L25.8 0.55Q22.9 0.55 21.65-1.55L21.65-1.55Q20.35-3.7 20.15-5.4L20.15-5.4Q19.85-7.95 19.85-8.75 19.85-9.55 19.87-10.03 19.9-10.5 20.12-11.93 20.35-13.35 20.72-14.63 21.1-15.9 21.9-17.48 22.7-19.05 23.8-20.18ZM49.3 13.85L49.3 13.85Q49.3 14.45 48.7 14.45L48.7 14.45 48.65 14.45Q47 14.45 44.92 13.3 42.85 12.15 42.85 10.65 42.85 9.15 44.75 5.43 46.65 1.7 46.65 0.45L46.65 0.45Q46.65-0.9 45.35-4.4L45.35-4.4Q43.7-8.95 42.72-11.8 41.75-14.65 40.62-16.82 39.5-19 39-19.4L39-19.4 38.5-19.75Q37.95-20.05 37.95-20.4L37.95-20.4Q37.95-21.1 40.12-21.83 42.3-22.55 43.95-22.55L43.95-22.55Q44.7-22.55 45.2-21.35L45.2-21.35Q46.1-19 47.15-14.85L47.15-14.85Q49.7-6.35 50.35-6.35L50.35-6.35Q50.8-6.35 52.17-9.85 53.55-13.35 53.55-15.5L53.55-15.5Q53.55-19.25 51.35-19.9L51.35-19.9Q50.85-20 50.85-20.4L50.85-20.4Q50.85-21.3 53.2-22.13 55.55-22.95 57.45-22.95L57.45-22.95Q59.1-22.95 59.1-20.8L59.1-20.8Q59.1-19.15 58.4-16.95 57.7-14.75 57.1-13.48 56.5-12.2 54.12-7.58 51.75-2.95 50.2 0.55L50.2 0.55Q48.5 4.75 48.5 9.1L48.5 9.1Q48.5 11.4 48.9 12.55 49.3 13.7 49.3 13.85ZM74.59-6.85L74.59-6.85Q74.59-4.7 73.77-3.1 72.94-1.5 71.89-0.75 70.84 0 69.39 0.45L69.39 0.45Q67.49 1.05 65.94 1.05L65.94 1.05Q62.69 1.05 60.54-0.23 58.39-1.5 58.39-4.3L58.39-4.3Q58.39-5.95 59.29-7L59.29-7Q60.69-8.55 62.64-8.55L62.64-8.55Q63.24-8.55 63.24-8L63.24-8Q63.24-7.95 63.02-7.23 62.79-6.5 62.79-5.4 62.79-4.3 63.67-3.45 64.54-2.6 65.79-2.6 67.04-2.6 67.79-3.03 68.54-3.45 68.84-4.1L68.84-4.1Q69.29-5 69.29-5.8L69.29-5.8Q69.29-7.25 67.84-8.3 66.39-9.35 64.64-9.95 62.89-10.55 61.44-11.95 59.99-13.35 59.99-15.45L59.99-15.45Q59.99-19.05 62.27-20.85 64.54-22.65 68.44-22.65L68.44-22.65Q70.14-22.65 72.02-22.18 73.89-21.7 73.89-20.58 73.89-19.45 73.52-18.5 73.14-17.55 72.59-17.55L72.59-17.55Q72.29-17.55 72.19-17.78 72.09-18 71.84-18.3 71.59-18.6 70.64-19.07 69.69-19.55 69.02-19.55 68.34-19.55 68.12-19.53 67.89-19.5 67.34-19.38 66.79-19.25 66.34-19L66.34-19Q65.19-18.35 65.19-17.1L65.19-17.1Q65.19-16.3 65.54-15.93 65.89-15.55 66.09-15.35 66.29-15.15 66.79-14.88 67.29-14.6 67.49-14.5 67.69-14.4 68.39-14.08 69.09-13.75 69.29-13.65L69.29-13.65Q74.59-11.15 74.59-6.85ZM91.69-6.85L91.69-6.85Q91.69-4.7 90.87-3.1 90.04-1.5 88.99-0.75 87.94 0 86.49 0.45L86.49 0.45Q84.59 1.05 83.04 1.05L83.04 1.05Q79.79 1.05 77.64-0.23 75.49-1.5 75.49-4.3L75.49-4.3Q75.49-5.95 76.39-7L76.39-7Q77.79-8.55 79.74-8.55L79.74-8.55Q80.34-8.55 80.34-8L80.34-8Q80.34-7.95 80.12-7.23 79.89-6.5 79.89-5.4 79.89-4.3 80.77-3.45 81.64-2.6 82.89-2.6 84.14-2.6 84.89-3.03 85.64-3.45 85.94-4.1L85.94-4.1Q86.39-5 86.39-5.8L86.39-5.8Q86.39-7.25 84.94-8.3 83.49-9.35 81.74-9.95 79.99-10.55 78.54-11.95 77.09-13.35 77.09-15.45L77.09-15.45Q77.09-19.05 79.37-20.85 81.64-22.65 85.54-22.65L85.54-22.65Q87.24-22.65 89.12-22.18 90.99-21.7 90.99-20.58 90.99-19.45 90.62-18.5 90.24-17.55 89.69-17.55L89.69-17.55Q89.39-17.55 89.29-17.78 89.19-18 88.94-18.3 88.69-18.6 87.74-19.07 86.79-19.55 86.12-19.55 85.44-19.55 85.22-19.53 84.99-19.5 84.44-19.38 83.89-19.25 83.44-19L83.44-19Q82.29-18.35 82.29-17.1L82.29-17.1Q82.29-16.3 82.64-15.93 82.99-15.55 83.19-15.35 83.39-15.15 83.89-14.88 84.39-14.6 84.59-14.5 84.79-14.4 85.49-14.08 86.19-13.75 86.39-13.65L86.39-13.65Q91.69-11.15 91.69-6.85Z" opacity="1" transform="matrix(1,0,0,1,0,0)" fill="black" class="wordmark-text-0" id="SvgjsPath1726"></path></svg></g></svg></g></svg></g></svg></g><g transform="matrix(1,0,0,1,9.721047457257981,0)"><svg viewBox="0 0 378.05550508548396 475.0267788524046" height="475.0267788524046" width="378.05550508548396"><g><svg xmlns="http://www.w3.org/2000/svg" xmlns:xlink="http://www.w3.org/1999/xlink" version="1.1" x="0" y="0" viewBox="0.0011845906120626151 0.0012840916272822411 79.58327828800667 99.99639689711232" enable-background="new 0 0 79.584 100" xml:space="preserve" width="378.05550508548396" height="475.0267788524046" class="icon-icon-0" data-fill-palette-color="accent" id="SvgjsSvg1725"><path d="M22.154 27.179c-0.725 2.097-3.014 3.21-5.111 2.484-2.097-0.725-3.21-3.014-2.484-5.111 0.725-2.097 3.764-5.38 5.862-4.654C22.518 20.623 22.879 25.082 22.154 27.179z" fill="white"></path><path d="M21.798 11.237c-1.25 1.834-2.069 6.231-0.235 7.481 1.834 1.25 5.627-1.122 6.876-2.956 1.25-1.834 0.776-4.334-1.058-5.583S23.047 9.403 21.798 11.237z" fill="white"></path><circle cx="33.657" cy="22.484" r="8.6" fill="white"></circle><path d="M36.263 72.724l-0.149-0.057c0.023-0.011 0.057-0.023 0.092-0.034C36.228 72.655 36.251 72.69 36.263 72.724z" fill="white"></path><path d="M36.263 72.724l-0.149-0.057c0.023-0.011 0.057-0.023 0.092-0.034C36.228 72.655 36.251 72.69 36.263 72.724z" fill="white"></path><path d="M4.381 57.501c0-3.17 1.662-5.74 2.296-5.74s0 4.592 2.296 6.888c2.242 2.242-1.662 4.592-2.296 4.592S4.381 60.671 4.381 57.501z" fill="white"></path><path d="M52.6 79.314c-1.929-1.653-3.697-2.974-5.293-3.995 4.73-3.077 9.885-18.289 9.885-22.41 0-3.903-4.592-14.925-4.592-14.925 0-0.54-0.126-1.045-0.367-1.515 0.896-4.202 1.16-11.24 0.367-17.967-1.022-8.748-3.169-15.947-5.132-17.841 0-0.034-0.023-0.057-0.034-0.092-0.781-1.332-5.155-0.241-9.77 2.445-4.627 2.675-7.738 5.936-6.957 7.267 0.769 1.343 5.143 0.241 9.759-2.434 1.447-0.838 2.744-1.734 3.823-2.606-0.253 2.078-0.333 4.673-0.218 7.6-0.528 3.134-0.654 11.4-0.654 15.958 0 1.068 0.023 2.09 0.08 3.065-2.56-0.528-5.143-0.769-6.969-0.769-2.537 0-5.407 0.735-7.646 2.112-1.63 1.01-2.916 2.342-3.502 3.984-0.838 0.218-1.722 0.482-2.629 0.792-3.226 1.091-7.348 3.019-10.849 5.029 0.253-0.321 0.517-0.654 0.769-0.999 3.41-4.569 5.339-8.898 4.328-9.655-1.022-0.758-4.604 2.342-8.014 6.911-3.318 4.455-5.247 8.668-4.386 9.586-0.023 0.126-0.023 0.23 0.011 0.333 0.7 2.101 12.078 0.402 19.288-2.021 2.928-0.987 5.568-0.218 7.589 0.023 3.134 5.522 6.36 13.593-1.791 21.791h-0.057c-3.777 0-6.934 2.778-7.795 6.533-1.653 0.494-3.352 1.079-5.086 1.757-2.755 1.079-5.304 2.262-7.543 3.49 0.367-0.861 0.677-1.734 0.907-2.595 1.642-6.119-1.607-13.283-3.444-13.777-1.837-0.494-2.962 4.11-4.604 10.229-1.205 4.478-2.239 10.792-1.986 14.052-0.126 0.459-0.115 0.873 0.034 1.251 1.148 2.951 6.544 3.754 16.888-0.276 3.548-1.378 14.753-3.674 15.706-4.099 2.974 3.318 8.714 6.693 16.44 9.839 13.26 5.407 27.634 5.649 29.724 2.847C83.598 91.943 63.472 88.637 52.6 79.314zM36.114 72.667c0.023-0.011 0.057-0.023 0.092-0.034 0.023 0.023 0.046 0.057 0.057 0.092L36.114 72.667z" fill="white"></path><path d="M72.521 87.317c1.357-1.068 3.655-4.746 2.533-6.172-1.122-1.426-5.238-0.06-6.595 1.008s-1.548 3.089-0.427 4.515C69.154 88.094 71.164 88.385 72.521 87.317z" fill="white"></path><path d="M36.263 72.724l-0.149-0.057c0.023-0.011 0.057-0.023 0.092-0.034C36.228 72.655 36.251 72.69 36.263 72.724z" fill="white"></path></svg></g></svg></g><g></g></svg></g><defs><mask></mask></defs></svg><rect width="131.9154256888662" height="247.2" fill="black" stroke="none" visibility="hidden"></rect></g></mask><linearGradient x1="0" x2="1" y1="0.5" y2="0.5" id="d7dbade6-d13a-4d0e-9964-0564661a8862"><stop stop-color="#ffa62e" offset="0"></stop><stop stop-color="#f71b3d" offset="1"></stop></linearGradient><rect width="131.9154256888662" height="247.2" fill="url(#d7dbade6-d13a-4d0e-9964-0564661a8862)" mask="url(#1ebe3ea4-14a0-4767-983e-691ea4418032)" data-fill-palette-color="accent"></rect></svg><rect width="131.9154256888662" height="247.2" fill="none" stroke="none" visibility="hidden"></rect></g></svg></g></svg>